<svg width="48" height="48" viewBox="0 0 48 48" fill="none" xmlns="http://www.w3.org/2000/svg">
<rect width="48" height="48" rx="24" fill="#8ACDA0"/>
<path d="M15 24V27.8C15 28.9201 15 29.4802 15.218 29.908C15.4097 30.2843 15.7157 30.5903 16.092 30.782C16.5198 31 17.0799 31 18.2 31H29.8C30.9201 31 31.4802 31 31.908 30.782C32.2843 30.5903 32.5903 30.2843 32.782 29.908C33 29.4802 33 28.9201 33 27.8V24M15 24H18.6745C19.1637 24 19.4083 24 19.6385 24.0553C19.8425 24.1043 20.0376 24.1851 20.2166 24.2947C20.4184 24.4184 20.5914 24.5914 20.9373 24.9373L21.0627 25.0627C21.4086 25.4086 21.5816 25.5816 21.7834 25.7053C21.9624 25.8149 22.1575 25.8957 22.3615 25.9447C22.5917 26 22.8363 26 23.3255 26H24.6745C25.1637 26 25.4083 26 25.6385 25.9447C25.8425 25.8957 26.0376 25.8149 26.2166 25.7053C26.4184 25.5816 26.5914 25.4086 26.9373 25.0627L27.0627 24.9373C27.4086 24.5914 27.5816 24.4184 27.7834 24.2947C27.9624 24.1851 28.1575 24.1043 28.3615 24.0553C28.5917 24 28.8363 24 29.3255 24H33M15 24L17.3264 18.8302C17.7875 17.8055 18.0181 17.2931 18.3803 16.9176C18.7004 16.5856 19.0928 16.3319 19.5269 16.1761C20.018 16 20.5799 16 21.7036 16H26.2964C27.4201 16 27.982 16 28.4731 16.1761C28.9072 16.3319 29.2996 16.5856 29.6197 16.9176C29.9819 17.2931 30.2125 17.8055 30.6736 18.8303L33 24" stroke="black" stroke-width="2" stroke-linecap="round" stroke-linejoin="round"/>
</svg>
