<svg width="48" height="48" viewBox="0 0 48 48" fill="none" xmlns="http://www.w3.org/2000/svg">
<rect width="48" height="48" rx="24" fill="#8ACDA0"/>
<path d="M20 18.0007L33 18.0014M20 24.0007L33 24.0015M20 30.0007L33 30.0015M15.5 18H15.51M15.5 24H15.51M15.5 30H15.51M16 18C16 18.2761 15.7761 18.5 15.5 18.5C15.2239 18.5 15 18.2761 15 18C15 17.7239 15.2239 17.5 15.5 17.5C15.7761 17.5 16 17.7239 16 18ZM16 24C16 24.2761 15.7761 24.5 15.5 24.5C15.2239 24.5 15 24.2761 15 24C15 23.7239 15.2239 23.5 15.5 23.5C15.7761 23.5 16 23.7239 16 24ZM16 30C16 30.2761 15.7761 30.5 15.5 30.5C15.2239 30.5 15 30.2761 15 30C15 29.7239 15.2239 29.5 15.5 29.5C15.7761 29.5 16 29.7239 16 30Z" stroke="black" stroke-width="2" stroke-linecap="round" stroke-linejoin="round"/>
</svg>
